<mxfile host="app.diagrams.net" modified="2023-03-27T09:22:27.790Z" agent="Mozilla/5.0 (Windows NT 10.0; Win64; x64) AppleWebKit/537.36 (KHTML, like Gecko) Chrome/111.0.0.0 Safari/537.36 Edg/111.0.1661.51" version="21.1.1" etag="GKVxqpOLXZosKv_cMdsL" type="github">
  <diagram name="第 1 页" id="qvm55pmR_1DVARG_AJ-E">
    <mxGraphModel>
      <root>
        <mxCell id="0" />
        <mxCell id="1" parent="0" />
      </root>
    </mxGraphModel>
  </diagram>
</mxfile>
